<?xml version="1.0" standalone="no"?>
<!DOCTYPE svg PUBLIC "-//W3C//DTD SVG 20010904//EN"
 "http://www.w3.org/TR/2001/REC-SVG-20010904/DTD/svg10.dtd">
<svg version="1.0" xmlns="http://www.w3.org/2000/svg"
 width="512.000000pt" height="512.000000pt" viewBox="0 0 512.000000 512.000000"
 preserveAspectRatio="xMidYMid meet">

<g transform="translate(0.000000,512.000000) scale(0.100000,-0.100000)"
fill="#000000" stroke="none">
<path d="M2435 4753 c-489 -61 -877 -441 -944 -927 -53 -382 109 -772 418
-1007 95 -72 267 -154 386 -184 418 -106 865 50 1126 394 71 94 155 267 186
386 23 89 26 119 26 265 0 147 -3 176 -26 265 -32 119 -116 294 -186 386 -206
271 -539 434 -874 428 -45 -1 -95 -4 -112 -6z"/>
<path d="M1926 2189 c-150 -22 -328 -92 -455 -179 -83 -55 -190 -158 -252
-239 -69 -91 -154 -266 -186 -386 l-27 -100 -1 -427 0 -428 33 -32 32 -33
1490 0 1490 0 32 33 33 32 0 428 -1 427 -27 100 c-32 120 -117 295 -186 386
-144 189 -359 332 -596 396 l-100 27 -610 2 c-335 1 -637 -2 -669 -7z"/>
</g>
</svg>
